<mxfile host="app.diagrams.net" modified="2023-06-27T04:10:15.773Z" agent="Mozilla/5.0 (Windows NT 10.0; Win64; x64) AppleWebKit/537.36 (KHTML, like Gecko) Chrome/114.0.0.0 Safari/537.36" etag="G70hkdel09GKfMtvImg1" version="21.5.0" type="device">
  <diagram name="Page-1" id="2YBvvXClWsGukQMizWep">
    <mxGraphModel dx="875" dy="444" grid="1" gridSize="10" guides="1" tooltips="1" connect="1" arrows="1" fold="1" page="1" pageScale="1" pageWidth="850" pageHeight="1100" math="0" shadow="0">
      <root>
        <mxCell id="0" />
        <mxCell id="1" parent="0" />
        <mxCell id="aM9ryv3xv72pqoxQDRHE-1" value=":UsuarioActor" style="shape=umlLifeline;perimeter=lifelinePerimeter;whiteSpace=wrap;html=1;container=0;dropTarget=0;collapsible=0;recursiveResize=0;outlineConnect=0;portConstraint=eastwest;newEdgeStyle={&quot;edgeStyle&quot;:&quot;elbowEdgeStyle&quot;,&quot;elbow&quot;:&quot;vertical&quot;,&quot;curved&quot;:0,&quot;rounded&quot;:0};" parent="1" vertex="1">
          <mxGeometry x="40" y="40" width="100" height="560" as="geometry" />
        </mxCell>
        <mxCell id="aM9ryv3xv72pqoxQDRHE-5" value=":Sistema de GestiÃ³n" style="shape=umlLifeline;perimeter=lifelinePerimeter;whiteSpace=wrap;html=1;container=0;dropTarget=0;collapsible=0;recursiveResize=0;outlineConnect=0;portConstraint=eastwest;newEdgeStyle={&quot;edgeStyle&quot;:&quot;elbowEdgeStyle&quot;,&quot;elbow&quot;:&quot;vertical&quot;,&quot;curved&quot;:0,&quot;rounded&quot;:0};" parent="1" vertex="1">
          <mxGeometry x="220" y="40" width="100" height="560" as="geometry" />
        </mxCell>
        <mxCell id="aM9ryv3xv72pqoxQDRHE-6" value="" style="html=1;points=[];perimeter=orthogonalPerimeter;outlineConnect=0;targetShapes=umlLifeline;portConstraint=eastwest;newEdgeStyle={&quot;edgeStyle&quot;:&quot;elbowEdgeStyle&quot;,&quot;elbow&quot;:&quot;vertical&quot;,&quot;curved&quot;:0,&quot;rounded&quot;:0};" parent="aM9ryv3xv72pqoxQDRHE-5" vertex="1">
          <mxGeometry x="45" y="80" width="10" height="430" as="geometry" />
        </mxCell>
        <mxCell id="QmivpndMRgkdBvFkMXCm-7" value="" style="html=1;points=[];perimeter=orthogonalPerimeter;outlineConnect=0;targetShapes=umlLifeline;portConstraint=eastwest;newEdgeStyle={&quot;edgeStyle&quot;:&quot;elbowEdgeStyle&quot;,&quot;elbow&quot;:&quot;vertical&quot;,&quot;curved&quot;:0,&quot;rounded&quot;:0};" vertex="1" parent="aM9ryv3xv72pqoxQDRHE-5">
          <mxGeometry x="55" y="100" width="10" height="60" as="geometry" />
        </mxCell>
        <mxCell id="QmivpndMRgkdBvFkMXCm-9" value="" style="endArrow=openThin;html=1;rounded=0;endFill=0;" edge="1" parent="aM9ryv3xv72pqoxQDRHE-5" source="aM9ryv3xv72pqoxQDRHE-6" target="QmivpndMRgkdBvFkMXCm-7">
          <mxGeometry width="50" height="50" relative="1" as="geometry">
            <mxPoint x="120" y="210" as="sourcePoint" />
            <mxPoint x="170" y="160" as="targetPoint" />
            <Array as="points">
              <mxPoint x="110" y="90" />
              <mxPoint x="110" y="110" />
            </Array>
          </mxGeometry>
        </mxCell>
        <mxCell id="QmivpndMRgkdBvFkMXCm-10" value="mostrarMenu()" style="edgeLabel;html=1;align=center;verticalAlign=middle;resizable=0;points=[];fontSize=7;" vertex="1" connectable="0" parent="QmivpndMRgkdBvFkMXCm-9">
          <mxGeometry x="-0.3033" y="-1" relative="1" as="geometry">
            <mxPoint as="offset" />
          </mxGeometry>
        </mxCell>
        <mxCell id="aM9ryv3xv72pqoxQDRHE-7" value="&lt;font style=&quot;font-size: 7px;&quot;&gt;run()&lt;/font&gt;" style="html=1;verticalAlign=bottom;endArrow=openThin;edgeStyle=elbowEdgeStyle;elbow=vertical;curved=0;rounded=0;endFill=0;" parent="1" target="aM9ryv3xv72pqoxQDRHE-6" edge="1">
          <mxGeometry x="0.1176" relative="1" as="geometry">
            <mxPoint x="95" y="120" as="sourcePoint" />
            <Array as="points">
              <mxPoint x="180" y="120" />
            </Array>
            <mxPoint as="offset" />
          </mxGeometry>
        </mxCell>
        <mxCell id="QmivpndMRgkdBvFkMXCm-1" value=":Consola" style="shape=umlLifeline;perimeter=lifelinePerimeter;whiteSpace=wrap;html=1;container=0;dropTarget=0;collapsible=0;recursiveResize=0;outlineConnect=0;portConstraint=eastwest;newEdgeStyle={&quot;edgeStyle&quot;:&quot;elbowEdgeStyle&quot;,&quot;elbow&quot;:&quot;vertical&quot;,&quot;curved&quot;:0,&quot;rounded&quot;:0};" vertex="1" parent="1">
          <mxGeometry x="350" y="40" width="100" height="560" as="geometry" />
        </mxCell>
        <mxCell id="QmivpndMRgkdBvFkMXCm-2" value="" style="html=1;points=[];perimeter=orthogonalPerimeter;outlineConnect=0;targetShapes=umlLifeline;portConstraint=eastwest;newEdgeStyle={&quot;edgeStyle&quot;:&quot;elbowEdgeStyle&quot;,&quot;elbow&quot;:&quot;vertical&quot;,&quot;curved&quot;:0,&quot;rounded&quot;:0};" vertex="1" parent="QmivpndMRgkdBvFkMXCm-1">
          <mxGeometry x="45" y="115" width="10" height="45" as="geometry" />
        </mxCell>
        <mxCell id="QmivpndMRgkdBvFkMXCm-21" value="" style="html=1;points=[];perimeter=orthogonalPerimeter;outlineConnect=0;targetShapes=umlLifeline;portConstraint=eastwest;newEdgeStyle={&quot;edgeStyle&quot;:&quot;elbowEdgeStyle&quot;,&quot;elbow&quot;:&quot;vertical&quot;,&quot;curved&quot;:0,&quot;rounded&quot;:0};" vertex="1" parent="QmivpndMRgkdBvFkMXCm-1">
          <mxGeometry x="45" y="230" width="10" height="30" as="geometry" />
        </mxCell>
        <mxCell id="QmivpndMRgkdBvFkMXCm-25" value="" style="html=1;points=[];perimeter=orthogonalPerimeter;outlineConnect=0;targetShapes=umlLifeline;portConstraint=eastwest;newEdgeStyle={&quot;edgeStyle&quot;:&quot;elbowEdgeStyle&quot;,&quot;elbow&quot;:&quot;vertical&quot;,&quot;curved&quot;:0,&quot;rounded&quot;:0};" vertex="1" parent="QmivpndMRgkdBvFkMXCm-1">
          <mxGeometry x="45" y="300" width="10" height="30" as="geometry" />
        </mxCell>
        <mxCell id="QmivpndMRgkdBvFkMXCm-3" value=":BaseDeDatosSingleton" style="shape=umlLifeline;perimeter=lifelinePerimeter;whiteSpace=wrap;html=1;container=0;dropTarget=0;collapsible=0;recursiveResize=0;outlineConnect=0;portConstraint=eastwest;newEdgeStyle={&quot;edgeStyle&quot;:&quot;elbowEdgeStyle&quot;,&quot;elbow&quot;:&quot;vertical&quot;,&quot;curved&quot;:0,&quot;rounded&quot;:0};" vertex="1" parent="1">
          <mxGeometry x="470" y="40" width="130" height="560" as="geometry" />
        </mxCell>
        <mxCell id="QmivpndMRgkdBvFkMXCm-4" value="" style="html=1;points=[];perimeter=orthogonalPerimeter;outlineConnect=0;targetShapes=umlLifeline;portConstraint=eastwest;newEdgeStyle={&quot;edgeStyle&quot;:&quot;elbowEdgeStyle&quot;,&quot;elbow&quot;:&quot;vertical&quot;,&quot;curved&quot;:0,&quot;rounded&quot;:0};" vertex="1" parent="QmivpndMRgkdBvFkMXCm-3">
          <mxGeometry x="60" y="160" width="10" height="30" as="geometry" />
        </mxCell>
        <mxCell id="QmivpndMRgkdBvFkMXCm-18" value="" style="html=1;points=[];perimeter=orthogonalPerimeter;outlineConnect=0;targetShapes=umlLifeline;portConstraint=eastwest;newEdgeStyle={&quot;edgeStyle&quot;:&quot;elbowEdgeStyle&quot;,&quot;elbow&quot;:&quot;vertical&quot;,&quot;curved&quot;:0,&quot;rounded&quot;:0};" vertex="1" parent="QmivpndMRgkdBvFkMXCm-3">
          <mxGeometry x="60" y="200" width="10" height="240" as="geometry" />
        </mxCell>
        <mxCell id="QmivpndMRgkdBvFkMXCm-30" value="" style="html=1;points=[];perimeter=orthogonalPerimeter;outlineConnect=0;targetShapes=umlLifeline;portConstraint=eastwest;newEdgeStyle={&quot;edgeStyle&quot;:&quot;elbowEdgeStyle&quot;,&quot;elbow&quot;:&quot;vertical&quot;,&quot;curved&quot;:0,&quot;rounded&quot;:0};" vertex="1" parent="QmivpndMRgkdBvFkMXCm-3">
          <mxGeometry x="70" y="370" width="10" height="60" as="geometry" />
        </mxCell>
        <mxCell id="QmivpndMRgkdBvFkMXCm-32" value="" style="endArrow=classicThin;html=1;rounded=0;endFill=1;" edge="1" parent="QmivpndMRgkdBvFkMXCm-3" source="QmivpndMRgkdBvFkMXCm-3" target="QmivpndMRgkdBvFkMXCm-30">
          <mxGeometry width="50" height="50" relative="1" as="geometry">
            <mxPoint x="-50" y="410" as="sourcePoint" />
            <mxPoint y="360" as="targetPoint" />
            <Array as="points">
              <mxPoint x="80" y="350" />
              <mxPoint x="100" y="350" />
              <mxPoint x="100" y="390" />
            </Array>
          </mxGeometry>
        </mxCell>
        <mxCell id="QmivpndMRgkdBvFkMXCm-33" value="autentificarUsuario()" style="edgeLabel;html=1;align=center;verticalAlign=middle;resizable=0;points=[];fontSize=7;" vertex="1" connectable="0" parent="QmivpndMRgkdBvFkMXCm-32">
          <mxGeometry x="-0.4545" y="1" relative="1" as="geometry">
            <mxPoint x="19" y="11" as="offset" />
          </mxGeometry>
        </mxCell>
        <mxCell id="QmivpndMRgkdBvFkMXCm-5" value=":Usuario" style="shape=umlLifeline;perimeter=lifelinePerimeter;whiteSpace=wrap;html=1;container=0;dropTarget=0;collapsible=0;recursiveResize=0;outlineConnect=0;portConstraint=eastwest;newEdgeStyle={&quot;edgeStyle&quot;:&quot;elbowEdgeStyle&quot;,&quot;elbow&quot;:&quot;vertical&quot;,&quot;curved&quot;:0,&quot;rounded&quot;:0};" vertex="1" parent="1">
          <mxGeometry x="650" y="40" width="130" height="580" as="geometry" />
        </mxCell>
        <mxCell id="QmivpndMRgkdBvFkMXCm-6" value="" style="html=1;points=[];perimeter=orthogonalPerimeter;outlineConnect=0;targetShapes=umlLifeline;portConstraint=eastwest;newEdgeStyle={&quot;edgeStyle&quot;:&quot;elbowEdgeStyle&quot;,&quot;elbow&quot;:&quot;vertical&quot;,&quot;curved&quot;:0,&quot;rounded&quot;:0};" vertex="1" parent="QmivpndMRgkdBvFkMXCm-5">
          <mxGeometry x="60" y="400" width="10" height="60" as="geometry" />
        </mxCell>
        <mxCell id="QmivpndMRgkdBvFkMXCm-38" value="" style="html=1;points=[];perimeter=orthogonalPerimeter;outlineConnect=0;targetShapes=umlLifeline;portConstraint=eastwest;newEdgeStyle={&quot;edgeStyle&quot;:&quot;elbowEdgeStyle&quot;,&quot;elbow&quot;:&quot;vertical&quot;,&quot;curved&quot;:0,&quot;rounded&quot;:0};" vertex="1" parent="QmivpndMRgkdBvFkMXCm-5">
          <mxGeometry x="60" y="480" width="10" height="40" as="geometry" />
        </mxCell>
        <mxCell id="QmivpndMRgkdBvFkMXCm-11" style="edgeStyle=elbowEdgeStyle;rounded=0;orthogonalLoop=1;jettySize=auto;html=1;elbow=vertical;curved=0;endArrow=openThin;endFill=0;entryX=0.5;entryY=0.333;entryDx=0;entryDy=0;entryPerimeter=0;" edge="1" parent="1" source="QmivpndMRgkdBvFkMXCm-7" target="QmivpndMRgkdBvFkMXCm-2">
          <mxGeometry relative="1" as="geometry">
            <mxPoint x="390" y="170" as="targetPoint" />
          </mxGeometry>
        </mxCell>
        <mxCell id="QmivpndMRgkdBvFkMXCm-12" value="leerEntero()" style="edgeLabel;html=1;align=center;verticalAlign=middle;resizable=0;points=[];fontSize=7;" vertex="1" connectable="0" parent="QmivpndMRgkdBvFkMXCm-11">
          <mxGeometry x="-0.0253" y="2" relative="1" as="geometry">
            <mxPoint as="offset" />
          </mxGeometry>
        </mxCell>
        <mxCell id="QmivpndMRgkdBvFkMXCm-13" value="" style="endArrow=none;dashed=1;html=1;rounded=0;" edge="1" parent="1" source="QmivpndMRgkdBvFkMXCm-7" target="QmivpndMRgkdBvFkMXCm-2">
          <mxGeometry width="50" height="50" relative="1" as="geometry">
            <mxPoint x="340" y="250" as="sourcePoint" />
            <mxPoint x="390" y="200" as="targetPoint" />
            <Array as="points">
              <mxPoint x="340" y="190" />
            </Array>
          </mxGeometry>
        </mxCell>
        <mxCell id="QmivpndMRgkdBvFkMXCm-14" style="edgeStyle=elbowEdgeStyle;rounded=0;orthogonalLoop=1;jettySize=auto;html=1;elbow=vertical;curved=0;endArrow=openThin;endFill=0;" edge="1" parent="1" source="aM9ryv3xv72pqoxQDRHE-6" target="QmivpndMRgkdBvFkMXCm-3">
          <mxGeometry relative="1" as="geometry" />
        </mxCell>
        <mxCell id="QmivpndMRgkdBvFkMXCm-15" value="desloggearUsuario()" style="edgeLabel;html=1;align=center;verticalAlign=middle;resizable=0;points=[];fontSize=7;" vertex="1" connectable="0" parent="QmivpndMRgkdBvFkMXCm-14">
          <mxGeometry x="0.0268" y="-1" relative="1" as="geometry">
            <mxPoint as="offset" />
          </mxGeometry>
        </mxCell>
        <mxCell id="QmivpndMRgkdBvFkMXCm-17" value="" style="endArrow=openThin;html=1;rounded=0;dashed=1;endFill=0;" edge="1" parent="1" source="QmivpndMRgkdBvFkMXCm-4" target="aM9ryv3xv72pqoxQDRHE-5">
          <mxGeometry width="50" height="50" relative="1" as="geometry">
            <mxPoint x="340" y="250" as="sourcePoint" />
            <mxPoint x="390" y="200" as="targetPoint" />
            <Array as="points">
              <mxPoint x="400" y="220" />
            </Array>
          </mxGeometry>
        </mxCell>
        <mxCell id="QmivpndMRgkdBvFkMXCm-19" style="edgeStyle=elbowEdgeStyle;rounded=0;orthogonalLoop=1;jettySize=auto;html=1;elbow=vertical;curved=0;endArrow=openThin;endFill=0;" edge="1" parent="1" source="aM9ryv3xv72pqoxQDRHE-6" target="QmivpndMRgkdBvFkMXCm-18">
          <mxGeometry relative="1" as="geometry" />
        </mxCell>
        <mxCell id="QmivpndMRgkdBvFkMXCm-20" value="iniciarSesion()" style="edgeLabel;html=1;align=center;verticalAlign=middle;resizable=0;points=[];fontSize=7;" vertex="1" connectable="0" parent="QmivpndMRgkdBvFkMXCm-19">
          <mxGeometry x="0.139" relative="1" as="geometry">
            <mxPoint x="-10" y="-5" as="offset" />
          </mxGeometry>
        </mxCell>
        <mxCell id="QmivpndMRgkdBvFkMXCm-22" value="" style="endArrow=openThin;html=1;rounded=0;endFill=0;" edge="1" parent="1" source="QmivpndMRgkdBvFkMXCm-3" target="QmivpndMRgkdBvFkMXCm-21">
          <mxGeometry width="50" height="50" relative="1" as="geometry">
            <mxPoint x="370" y="330" as="sourcePoint" />
            <mxPoint x="420" y="280" as="targetPoint" />
            <Array as="points">
              <mxPoint x="470" y="280" />
            </Array>
          </mxGeometry>
        </mxCell>
        <mxCell id="QmivpndMRgkdBvFkMXCm-23" value="leerEntero()" style="edgeLabel;html=1;align=center;verticalAlign=middle;resizable=0;points=[];fontSize=7;" vertex="1" connectable="0" parent="QmivpndMRgkdBvFkMXCm-22">
          <mxGeometry x="-0.1171" y="-1" relative="1" as="geometry">
            <mxPoint as="offset" />
          </mxGeometry>
        </mxCell>
        <mxCell id="QmivpndMRgkdBvFkMXCm-24" style="edgeStyle=elbowEdgeStyle;rounded=0;orthogonalLoop=1;jettySize=auto;html=1;elbow=vertical;curved=0;dashed=1;endArrow=openThin;endFill=0;" edge="1" parent="1">
          <mxGeometry relative="1" as="geometry">
            <mxPoint x="405" y="289.997619047619" as="sourcePoint" />
            <mxPoint x="534.4999999999998" y="289.997619047619" as="targetPoint" />
          </mxGeometry>
        </mxCell>
        <mxCell id="QmivpndMRgkdBvFkMXCm-26" style="edgeStyle=elbowEdgeStyle;rounded=0;orthogonalLoop=1;jettySize=auto;html=1;elbow=vertical;curved=0;endArrow=openThin;endFill=0;" edge="1" parent="1" source="QmivpndMRgkdBvFkMXCm-18" target="QmivpndMRgkdBvFkMXCm-25">
          <mxGeometry relative="1" as="geometry">
            <Array as="points">
              <mxPoint x="460" y="350" />
            </Array>
          </mxGeometry>
        </mxCell>
        <mxCell id="QmivpndMRgkdBvFkMXCm-27" value="&lt;font style=&quot;font-size: 7px;&quot;&gt;leerString()&lt;/font&gt;" style="edgeLabel;html=1;align=center;verticalAlign=middle;resizable=0;points=[];" vertex="1" connectable="0" parent="QmivpndMRgkdBvFkMXCm-26">
          <mxGeometry x="0.1032" y="-1" relative="1" as="geometry">
            <mxPoint y="-14" as="offset" />
          </mxGeometry>
        </mxCell>
        <mxCell id="QmivpndMRgkdBvFkMXCm-29" style="edgeStyle=elbowEdgeStyle;rounded=0;orthogonalLoop=1;jettySize=auto;html=1;elbow=vertical;curved=0;endArrow=openThin;endFill=0;dashed=1;" edge="1" parent="1">
          <mxGeometry relative="1" as="geometry">
            <mxPoint x="410" y="360.187619047619" as="sourcePoint" />
            <mxPoint x="530" y="360.19" as="targetPoint" />
          </mxGeometry>
        </mxCell>
        <mxCell id="QmivpndMRgkdBvFkMXCm-34" style="edgeStyle=elbowEdgeStyle;rounded=0;orthogonalLoop=1;jettySize=auto;html=1;elbow=vertical;curved=0;endArrow=openThin;endFill=0;" edge="1" parent="1">
          <mxGeometry relative="1" as="geometry">
            <mxPoint x="550" y="439.9966666666667" as="sourcePoint" />
            <mxPoint x="710" y="439.9966666666667" as="targetPoint" />
          </mxGeometry>
        </mxCell>
        <mxCell id="QmivpndMRgkdBvFkMXCm-35" value="&lt;font style=&quot;font-size: 7px;&quot;&gt;validarPass&lt;/font&gt;()" style="edgeLabel;html=1;align=center;verticalAlign=middle;resizable=0;points=[];" vertex="1" connectable="0" parent="QmivpndMRgkdBvFkMXCm-34">
          <mxGeometry x="-0.2229" y="2" relative="1" as="geometry">
            <mxPoint y="-8" as="offset" />
          </mxGeometry>
        </mxCell>
        <mxCell id="QmivpndMRgkdBvFkMXCm-36" style="edgeStyle=elbowEdgeStyle;rounded=0;orthogonalLoop=1;jettySize=auto;html=1;elbow=vertical;curved=0;dashed=1;endArrow=openThin;endFill=0;" edge="1" parent="1">
          <mxGeometry relative="1" as="geometry">
            <mxPoint x="710" y="459.9966666666667" as="sourcePoint" />
            <mxPoint x="550" y="459.9966666666667" as="targetPoint" />
          </mxGeometry>
        </mxCell>
        <mxCell id="QmivpndMRgkdBvFkMXCm-37" value="" style="endArrow=openThin;html=1;rounded=0;endFill=0;dashed=1;" edge="1" parent="1">
          <mxGeometry width="50" height="50" relative="1" as="geometry">
            <mxPoint x="527.5" y="460" as="sourcePoint" />
            <mxPoint x="272.5" y="460" as="targetPoint" />
          </mxGeometry>
        </mxCell>
        <mxCell id="QmivpndMRgkdBvFkMXCm-39" value="" style="endArrow=openThin;html=1;rounded=0;endFill=0;" edge="1" parent="1" source="aM9ryv3xv72pqoxQDRHE-6" target="QmivpndMRgkdBvFkMXCm-38">
          <mxGeometry width="50" height="50" relative="1" as="geometry">
            <mxPoint x="290" y="510" as="sourcePoint" />
            <mxPoint x="360" y="440" as="targetPoint" />
            <Array as="points">
              <mxPoint x="490" y="510" />
            </Array>
          </mxGeometry>
        </mxCell>
        <mxCell id="QmivpndMRgkdBvFkMXCm-40" value="&lt;font style=&quot;font-size: 7px;&quot;&gt;proceder()&lt;/font&gt;" style="edgeLabel;html=1;align=center;verticalAlign=middle;resizable=0;points=[];" vertex="1" connectable="0" parent="QmivpndMRgkdBvFkMXCm-39">
          <mxGeometry x="-0.0727" y="1" relative="1" as="geometry">
            <mxPoint x="-4" y="-9" as="offset" />
          </mxGeometry>
        </mxCell>
        <mxCell id="QmivpndMRgkdBvFkMXCm-41" style="edgeStyle=elbowEdgeStyle;rounded=0;orthogonalLoop=1;jettySize=auto;html=1;elbow=vertical;curved=0;dashed=1;endArrow=openThin;endFill=0;" edge="1" parent="1" source="QmivpndMRgkdBvFkMXCm-38" target="aM9ryv3xv72pqoxQDRHE-6">
          <mxGeometry relative="1" as="geometry">
            <Array as="points">
              <mxPoint x="490" y="530" />
            </Array>
          </mxGeometry>
        </mxCell>
      </root>
    </mxGraphModel>
  </diagram>
</mxfile>
